<svg xmlns="http://www.w3.org/2000/svg" width="180" height="27.31" viewBox="0 0 180 27.31"><path d="M89.35 18.47h-5.76l-1.32 4.29h-3.63l6.14-18.21h3.37l6.15 18.21h-3.63zm-4.8-3.12h3.84L86.47 9zm11.52 7.41V4.55h4.65c4.91 0 8.21 3.66 8.21 9.1s-3.3 9.11-8.21 9.11zm1.23-1.13h3.44c3.18 0 6.89-2.09 6.89-8s-3.71-8-6.89-8H97.3zm81.04 1.13l-9.68-16.6v16.6h-1.23V4.55h1.66l9.68 16.66V4.55H180v18.21h-1.66zm-40.5.24a5.63 5.63 0 01-5.56-4.67l1.06-.63c.73 2.77 2.24 4.17 4.5 4.17s3.63-1.54 3.63-3.91c0-2.68-2.05-3.65-4.21-4.67-2.78-1.31-4-2.76-4-4.85a4 4 0 014.19-4.11 4.2 4.2 0 014.2 2.53l-1 .63a3.4 3.4 0 00-3.21-2 2.8 2.8 0 00-3 2.84c0 2.43 2.17 3.42 4.08 4.3s4.17 2.28 4.17 5.28a4.82 4.82 0 01-4.85 5.09zm18.7-17.45a8.11 8.11 0 11-8.07 8.11 8.1 8.1 0 018.07-8.11m0-1.23a9.34 9.34 0 109.31 9.34 9.32 9.32 0 00-9.31-9.34zm-36.56 18.44l-6.35-18.21h1.25l5.85 16.77 5.84-16.77h1.25l-6.35 18.21h-1.49zm-9.16-18.21h1.23v18.21h-1.23zm33.61 0h1.23v18.21h-1.23zm-15.02 0h1.23v18.21h-1.23zm-88.51 0h12v1.56l-7.75 13.53h8.14v3.12H40.46V21.2l7.86-13.53H40.9zm24.98 0v3.12H58v3.83h6.3v3.12H58v5h8.11v3.12H54.66V4.55zm1.4 0h13.43v3.12h-5v15.09h-3.4V7.67h-5zM0 13.66V0h13.61A13.64 13.64 0 000 13.66zm13.61 13.65h13.62V13.66a13.64 13.64 0 01-13.62 13.65zM27.23 0h-4.36L8.71 27.31h4.36zm-8.71 0h-4.36L0 27.31h4.36z"/></svg>